<?xml version="1.0" encoding="UTF-8"?>
<svg width="121px" height="121px" viewBox="0 0 121 121" version="1.1" xmlns="http://www.w3.org/2000/svg" xmlns:xlink="http://www.w3.org/1999/xlink">
    <!-- Generator: Sketch 43.2 (39069) - http://www.bohemiancoding.com/sketch -->
    <title>Fill 209</title>
    <desc>Created with Sketch.</desc>
    <defs></defs>
    <g id="Homepage_2" stroke="none" stroke-width="1" fill="none" fill-rule="evenodd">
        <g id="Home-Copy" transform="translate(-660.000000, -9786.000000)" fill="#FFFFFF">
            <path d="M750.375,9876.31852 L737.891953,9876.31852 L737.891953,9856.78245 C737.891953,9852.12437 737.809109,9846.13327 731.403781,9846.13327 C724.908078,9846.13327 723.917719,9851.20933 723.917719,9856.45108 L723.917719,9876.31852 L711.445969,9876.31852 L711.445969,9836.14683 L723.413125,9836.14683 L723.413125,9841.64087 L723.586344,9841.64087 C725.25075,9838.48152 729.325156,9835.14894 735.399109,9835.14894 C748.040313,9835.14894 750.375,9843.4672 750.375,9854.28584 L750.375,9876.31852 Z M697.370063,9830.66031 C693.359672,9830.66031 690.125,9827.41434 690.125,9823.41902 C690.125,9819.42369 693.359672,9816.17772 697.370063,9816.17772 C701.361625,9816.17772 704.603828,9819.42369 704.603828,9823.41902 C704.603828,9827.41434 701.361625,9830.66031 697.370063,9830.66031 L697.370063,9830.66031 Z M703.613469,9876.31852 L691.115359,9876.31852 L691.115359,9836.14683 L703.613469,9836.14683 L703.613469,9876.31852 Z M720.25,9786 C686.973172,9786 660,9812.97317 660,9846.25 C660,9879.52306 686.973172,9906.5 720.25,9906.5 C753.526828,9906.5 780.5,9879.52306 780.5,9846.25 C780.5,9812.97317 753.526828,9786 720.25,9786 L720.25,9786 Z" id="Fill-209"></path>
        </g>
    </g>
</svg>