<?xml version="1.0" encoding="UTF-8"?>
<svg width="121px" height="121px" viewBox="0 0 121 121" version="1.1" xmlns="http://www.w3.org/2000/svg" xmlns:xlink="http://www.w3.org/1999/xlink">
    <!-- Generator: Sketch 43.2 (39069) - http://www.bohemiancoding.com/sketch -->
    <title>Oval 3</title>
    <desc>Created with Sketch.</desc>
    <defs></defs>
    <g id="Homepage_2" stroke="none" stroke-width="1" fill="none" fill-rule="evenodd">
        <g id="Home-Copy" transform="translate(-959.000000, -9785.000000)" fill="#FFFFFF">
            <path d="M1019.25,9905.5 C985.974844,9905.5 959,9878.52516 959,9845.25 C959,9811.97484 985.974844,9785 1019.25,9785 C1052.52516,9785 1079.5,9811.97484 1079.5,9845.25 C1079.5,9878.52516 1052.52516,9905.5 1019.25,9905.5 Z M982.712676,9820.56286 L1019.04536,9846.2377 L1055.17036,9820.70962 L1055.79508,9820.71088 L1055.79508,9820.55738 L982.704918,9820.55738 L982.704918,9820.56284 L982.712676,9820.56286 Z M1055.79508,9823.67374 L1055.79508,9823.67374 L1019.34836,9852.06842 L982.704918,9823.52049 L982.704918,9870.93033 L1055.79508,9870.93033 L1055.79508,9823.67374 Z" id="Oval-3"></path>
        </g>
    </g>
</svg>