<?xml version="1.0" encoding="UTF-8"?>
<svg width="121px" height="121px" viewBox="0 0 121 121" version="1.1" xmlns="http://www.w3.org/2000/svg" xmlns:xlink="http://www.w3.org/1999/xlink">
    <!-- Generator: Sketch 43.2 (39069) - http://www.bohemiancoding.com/sketch -->
    <title>Fill 210</title>
    <desc>Created with Sketch.</desc>
    <defs></defs>
    <g id="Homepage_2" stroke="none" stroke-width="1" fill="none" fill-rule="evenodd">
        <g id="Home-Copy" transform="translate(-359.000000, -9784.000000)" fill="#FFFFFF">
            <path d="M427.813031,9868.29352 C427.813031,9868.29352 423.738625,9868.78681 419.25,9868.78681 C414.761375,9868.78681 410.63425,9868.33117 410.63425,9868.33117 C400.146984,9867.13747 389.125,9863.08566 389.125,9844.99183 C389.125,9839.83669 390.962625,9835.62295 393.982656,9832.3205 C393.500656,9831.1268 391.877672,9826.32562 394.445828,9819.82239 C394.445828,9819.82239 398.411031,9818.55337 407.433469,9824.66498 C411.199094,9823.61814 415.239609,9823.09472 419.253766,9823.07589 C423.264156,9823.09472 427.304672,9823.61814 431.077828,9824.66498 C440.092734,9818.55337 444.050406,9819.82239 444.050406,9819.82239 C446.626094,9826.32562 445.006875,9831.1268 444.521109,9832.3205 C447.544906,9835.62295 449.375,9839.83669 449.375,9844.99183 C449.375,9863.13084 438.334187,9867.12617 427.813031,9868.29352 M419.25,9784 C385.973172,9784 359,9810.97317 359,9844.25 C359,9877.52306 385.973172,9904.5 419.25,9904.5 C452.523062,9904.5 479.5,9877.52306 479.5,9844.25 C479.5,9810.97317 452.523062,9784 419.25,9784" id="Fill-210"></path>
        </g>
    </g>
</svg>