<svg width="121" height="121" viewBox="0 0 121 121" xmlns="http://www.w3.org/2000/svg" id="git-icon"><title>Github</title><path d="M68.813 84.294s-4.074.493-8.563.493c-4.489 0-8.616-.456-8.616-.456-10.487-1.194-21.509-5.245-21.509-23.34 0-5.154 1.838-9.368 4.858-12.67-.482-1.194-2.105-5.995.463-12.499 0 0 3.965-1.269 12.987 4.843 3.766-1.047 7.807-1.57 11.82-1.59 4.011.02 8.052.543 11.825 1.59 9.015-6.112 12.972-4.843 12.972-4.843 2.576 6.504.957 11.305.471 12.498 3.024 3.303 4.854 7.517 4.854 12.672 0 18.139-11.04 22.134-21.562 23.302M60.25 0C26.973 0 0 26.973 0 60.25c0 33.273 26.973 60.25 60.25 60.25 33.273 0 60.25-26.977 60.25-60.25C120.5 26.973 93.523 0 60.25 0" fill-rule="evenodd"/></svg>
