<svg width="121" height="121" viewBox="0 0 121 121" xmlns="http://www.w3.org/2000/svg" id="linkedin-icon"><title>Linkedin</title><path d="M90.375 90.319H77.892V70.782c0-4.658-.083-10.649-6.488-10.649-6.496 0-7.486 5.076-7.486 10.318V90.32H51.446V50.147h11.967v5.494h.173c1.665-3.16 5.74-6.492 11.813-6.492 12.641 0 14.976 8.318 14.976 19.137v22.033zM37.37 44.66a7.24 7.24 0 0 1-7.245-7.241 7.24 7.24 0 1 1 14.479 0c0 3.995-3.242 7.241-7.234 7.241zm6.243 45.659H31.115V50.147h12.498v40.172zM60.25 0C26.973 0 0 26.973 0 60.25c0 33.273 26.973 60.25 60.25 60.25s60.25-26.977 60.25-60.25C120.5 26.973 93.527 0 60.25 0z" fill-rule="evenodd"/></svg>
